<?xml version="1.0" encoding="UTF-8"?>
<svg width="32" height="32" viewBox="0 0 32 32" xmlns="http://www.w3.org/2000/svg">
    <defs>
        <linearGradient id="gradient" x1="0%" y1="0%" x2="100%" y2="100%">
            <stop offset="0%" style="stop-color:#1e90ff"/>
            <stop offset="100%" style="stop-color:#00bfff"/>
        </linearGradient>
    </defs>
    <circle cx="16" cy="16" r="16" fill="url(#gradient)"/>
    <path d="M24 18c0-2.2-1.8-4-4-4-0.4 0-0.8 0.1-1.2 0.2C18.2 12.2 16.2 10 14 10c-2.8 0-5 2.2-5 5 0 0.1 0 0.2 0 0.3C6.8 15.8 5 17.6 5 20c0 2.2 1.8 4 4 4h15c2.2 0 4-1.8 4-4z" fill="white" opacity="0.9"/>
</svg> 